<?xml version="1.0" encoding="UTF-8" standalone="no"?><svg xmlns="http://www.w3.org/2000/svg" xmlns:xlink="http://www.w3.org/1999/xlink" contentStyleType="text/css" height="533px" preserveAspectRatio="none" style="width:585px;height:533px;background:#FFFFFF;" version="1.1" viewBox="0 0 585 533" width="585px" zoomAndPan="magnify"><defs/><g><!--MD5=[7c6a63386e4a9a85c2bba396023a8ec3]
cluster LaymanDeploy--><g id="cluster_LaymanDeploy"><path d="M223.5,149.57 L327.5,149.57 A3.75,3.75 0 0 1 330,152.07 L337,174.6379 L446.5,174.6379 A2.5,2.5 0 0 1 449,177.1379 L449,378.2 A2.5,2.5 0 0 1 446.5,380.7 L223.5,380.7 A2.5,2.5 0 0 1 221,378.2 L221,152.07 A2.5,2.5 0 0 1 223.5,149.57 " fill="none" style="stroke:#000000;stroke-width:1.5;"/><line style="stroke:#000000;stroke-width:1.5;" x1="221" x2="337" y1="174.6379" y2="174.6379"/><text fill="#000000" font-family="sans-serif" font-size="14" font-weight="bold" lengthAdjust="spacing" textLength="103" x="225" y="166.5359">LaymanDeploy</text></g><!--MD5=[30afa6242ed7a9da9c35c8eba5ba651d]
cluster Kubernetes--><g id="cluster_Kubernetes"><rect fill="none" height="96.07" rx="2.5" ry="2.5" style="stroke:#181818;stroke-width:1.0;" width="110" x="392" y="431.7"/><rect fill="none" height="10" style="stroke:#181818;stroke-width:1.0;" width="15" x="482" y="436.7"/><rect fill="none" height="2" style="stroke:#181818;stroke-width:1.0;" width="4" x="480" y="438.7"/><rect fill="none" height="2" style="stroke:#181818;stroke-width:1.0;" width="4" x="480" y="442.7"/><text fill="#000000" font-family="sans-serif" font-size="14" font-weight="bold" lengthAdjust="spacing" textLength="79" x="407.5" y="459.6659">Kubernetes</text></g><!--MD5=[95ed42b9f123a7e59a29b00e3061dd9e]
entity Web Interface--><g id="elem_Web Interface"><rect fill="#F1F1F1" height="49.0679" rx="2.5" ry="2.5" style="stroke:#181818;stroke-width:0.5;" width="135" x="264.5" y="187.57"/><rect fill="#F1F1F1" height="10" style="stroke:#181818;stroke-width:0.5;" width="15" x="379.5" y="192.57"/><rect fill="#F1F1F1" height="2" style="stroke:#181818;stroke-width:0.5;" width="4" x="377.5" y="194.57"/><rect fill="#F1F1F1" height="2" style="stroke:#181818;stroke-width:0.5;" width="4" x="377.5" y="198.57"/><text fill="#000000" font-family="sans-serif" font-size="14" lengthAdjust="spacing" textLength="95" x="279.5" y="222.5359">Web Interface</text></g><!--MD5=[b505964ab16f6a87b23723b5064ff5a4]
entity Backend Service--><g id="elem_Backend Service"><rect fill="#F1F1F1" height="49.0679" rx="2.5" ry="2.5" style="stroke:#181818;stroke-width:0.5;" width="149" x="260.5" y="315.63"/><rect fill="#F1F1F1" height="10" style="stroke:#181818;stroke-width:0.5;" width="15" x="389.5" y="320.63"/><rect fill="#F1F1F1" height="2" style="stroke:#181818;stroke-width:0.5;" width="4" x="387.5" y="322.63"/><rect fill="#F1F1F1" height="2" style="stroke:#181818;stroke-width:0.5;" width="4" x="387.5" y="326.63"/><text fill="#000000" font-family="sans-serif" font-size="14" lengthAdjust="spacing" textLength="109" x="275.5" y="350.5959">Backend Service</text></g><!--MD5=[17737e49c286898813382e12d6080e03]
entity Service--><g id="elem_Service"><rect fill="#F1F1F1" height="42.0679" rx="2.5" ry="2.5" style="stroke:#181818;stroke-width:0.5;" width="78" x="408" y="469.7"/><polygon fill="#F1F1F1" points="469,474.7,469,488.7,481,488.7,481,480.7,475,474.7,469,474.7" style="stroke:#181818;stroke-width:0.5;"/><line style="stroke:#181818;stroke-width:0.5;" x1="475" x2="475" y1="474.7" y2="480.7"/><line style="stroke:#181818;stroke-width:0.5;" x1="481" x2="475" y1="480.7" y2="480.7"/><text fill="#000000" font-family="sans-serif" font-size="14" lengthAdjust="spacing" textLength="48" x="418" y="497.6659">Service</text></g><!--MD5=[fee662a292a0353a69bd162820bae93b]
entity User--><g id="elem_User"><ellipse cx="332" cy="14" fill="#F1F1F1" rx="8" ry="8" style="stroke:#181818;stroke-width:0.5;"/><path d="M332,22 L332,49 M319,30 L345,30 M332,49 L319,64 M332,49 L345,64 " fill="none" style="stroke:#181818;stroke-width:0.5;"/><text fill="#000000" font-family="sans-serif" font-size="14" lengthAdjust="spacing" textLength="31" x="316.5" y="80.4659">User</text></g><!--MD5=[aa6317e58cc34af4bace6e8a6baf0f16]
entity GitRepository--><g id="elem_GitRepository"><path d="M6,476.7 C6,466.7 61,466.7 61,466.7 C61,466.7 116,466.7 116,476.7 L116,504.7679 C116,514.7679 61,514.7679 61,514.7679 C61,514.7679 6,514.7679 6,504.7679 L6,476.7 " fill="#F1F1F1" style="stroke:#181818;stroke-width:0.5;"/><path d="M6,476.7 C6,486.7 61,486.7 61,486.7 C61,486.7 116,486.7 116,476.7 " fill="none" style="stroke:#181818;stroke-width:0.5;"/><text fill="#000000" font-family="sans-serif" font-size="14" lengthAdjust="spacing" textLength="90" x="16" y="505.6659">GitRepository</text></g><!--MD5=[d23a0d79cc7c5abefc2134e42e0a640e]
entity ExternalStorage--><g id="elem_ExternalStorage"><path d="M167.5,476.7 C167.5,466.7 231,466.7 231,466.7 C231,466.7 294.5,466.7 294.5,476.7 L294.5,504.7679 C294.5,514.7679 231,514.7679 231,514.7679 C231,514.7679 167.5,514.7679 167.5,504.7679 L167.5,476.7 " fill="#F1F1F1" style="stroke:#181818;stroke-width:0.5;"/><path d="M167.5,476.7 C167.5,486.7 231,486.7 231,486.7 C231,486.7 294.5,486.7 294.5,476.7 " fill="none" style="stroke:#181818;stroke-width:0.5;"/><text fill="#000000" font-family="sans-serif" font-size="14" lengthAdjust="spacing" textLength="107" x="177.5" y="505.6659">ExternalStorage</text></g><!--MD5=[053f39cf33a3f7f245dfbe0bd4734656]
link User to Web Interface--><g id="link_User_Web Interface"><path d="M332,84.73 C332,114.32 332,154.5 332,181.54 " fill="none" id="User-to-Web Interface" style="stroke:#181818;stroke-width:1.0;"/><polygon fill="#181818" points="332,186.44,336,177.44,332,181.44,328,177.44,332,186.44" style="stroke:#181818;stroke-width:1.0;"/><text fill="#000000" font-family="sans-serif" font-size="13" lengthAdjust="spacing" textLength="47" x="333" y="129.467">Interact</text></g><!--MD5=[78ccea2f391bee671efe49bb1708c473]
link Web Interface to Backend Service--><g id="link_Web Interface_Backend Service"><path d="M291.09,236.82 C274.14,249.93 260.25,267.26 269,285.63 C273.8,295.71 281.52,304.5 290.02,311.89 " fill="none" id="Web Interface-to-Backend Service" style="stroke:#181818;stroke-width:1.0;"/><polygon fill="#181818" points="293.25,315.41,288.8935,306.577,289.4077,312.2105,283.7743,312.7247,293.25,315.41" style="stroke:#181818;stroke-width:1.0;"/><text fill="#000000" font-family="sans-serif" font-size="13" lengthAdjust="spacing" textLength="45" x="270" y="281.527">Control</text></g><!--MD5=[6ae23b63bc03c6eb1e37452662cd7cce]
link Backend Service to Web Interface--><g id="link_Backend Service_Web Interface"><path d="M334.43,315.25 C333.94,294.68 333.23,264.93 332.71,242.84 " fill="none" id="Backend Service-to-Web Interface" style="stroke:#181818;stroke-width:1.0;"/><polygon fill="#181818" points="332.57,238.11,328.7767,247.1991,332.6843,243.1087,336.7746,247.0162,332.57,238.11" style="stroke:#181818;stroke-width:1.0;"/><text fill="#000000" font-family="sans-serif" font-size="13" lengthAdjust="spacing" textLength="72" x="334" y="281.527">Information</text></g><!--MD5=[f517b21830129e29bbdccb6ce9edecc8]
link Backend Service to Service--><g id="link_Backend Service_Service"><path d="M328.01,365.09 C324.92,380.47 323.63,400.35 332,415.7 C346.92,443.04 376.74,461.8 402.28,473.6 " fill="none" id="Backend Service-to-Service" style="stroke:#181818;stroke-width:1.0;"/><polygon fill="#181818" points="406.65,476.01,400.0928,468.6613,402.0928,473.9528,396.8013,475.9529,406.65,476.01" style="stroke:#181818;stroke-width:1.0;"/><text fill="#000000" font-family="sans-serif" font-size="13" lengthAdjust="spacing" textLength="70" x="333" y="411.597">Collect data</text></g><!--MD5=[f517b21830129e29bbdccb6ce9edecc8]
link Backend Service to Service--><g id="link_Backend Service_Service"><path d="M373.94,364.96 C386.04,373.78 398.64,384.61 408,396.7 C423.51,416.74 433.95,443.86 440.09,463.64 " fill="none" id="Backend Service-to-Service-1" style="stroke:#181818;stroke-width:1.0;"/><polygon fill="#181818" points="441.79,468.27,443.0218,458.4985,440.3467,463.4828,435.3623,460.8077,441.79,468.27" style="stroke:#181818;stroke-width:1.0;"/><text fill="#000000" font-family="sans-serif" font-size="13" lengthAdjust="spacing" textLength="49" x="420" y="411.597">Monitor</text></g><!--MD5=[f517b21830129e29bbdccb6ce9edecc8]
link Backend Service to Service--><g id="link_Backend Service_Service"><path d="M409.83,352.48 C435.82,360.39 462.36,373.84 478,396.7 C492.09,417.3 479.89,444.81 466.87,464.56 " fill="none" id="Backend Service-to-Service-2" style="stroke:#181818;stroke-width:1.0;"/><polygon fill="#181818" points="463.56,468.41,471.9466,463.2462,466.386,464.2852,465.3469,458.7246,463.56,468.41" style="stroke:#181818;stroke-width:1.0;"/><text fill="#000000" font-family="sans-serif" font-size="13" lengthAdjust="spacing" textLength="92" x="485" y="411.597">Deploy services</text></g><!--MD5=[6f0e6b504d756fdc51e2b11acc650869]
link Backend Service to ExternalStorage--><g id="link_Backend Service_ExternalStorage"><path d="M262.39,365.08 C248.71,372.97 236.15,383.29 228,396.7 C216.44,415.73 218.19,441.21 222.27,460.7 " fill="none" id="Backend Service-to-ExternalStorage" style="stroke:#181818;stroke-width:1.0;"/><polygon fill="#181818" points="223.6,465.54,225.4925,455.8747,222.4851,460.6659,217.6939,457.6585,223.6,465.54" style="stroke:#181818;stroke-width:1.0;"/><text fill="#000000" font-family="sans-serif" font-size="13" lengthAdjust="spacing" textLength="62" x="229" y="411.597">Store data</text></g><!--MD5=[d417067aec5bd226ca1bc4bca57605da]
link Backend Service to GitRepository--><g id="link_Backend Service_GitRepository"><path d="M260.1,348.73 C194.82,356.86 106.8,372.05 82,396.7 C65.33,413.28 60.69,440.08 59.86,460.68 " fill="none" id="Backend Service-to-GitRepository" style="stroke:#181818;stroke-width:1.0;"/><polygon fill="#181818" points="59.72,465.58,63.95,456.6858,59.8485,460.5817,55.9527,456.4802,59.72,465.58" style="stroke:#181818;stroke-width:1.0;"/><text fill="#000000" font-family="sans-serif" font-size="13" lengthAdjust="spacing" textLength="128" x="83" y="411.597">Get plugin definitions</text></g><!--MD5=[84fd4f911d1c385e2ef2d104fc86a352]
@startuml

actor User
package "LaymanDeploy" {
    component "Web Interface"
    component "Backend Service"
}

component "Kubernetes" as Kubernetes {
    artifact "Service" as Service
}

database GitRepository
database ExternalStorage

User - -> [Web Interface]: Interact
[Web Interface] - -> [Backend Service]: Control

[Backend Service] - -> Service: Collect data
[Backend Service] - -> ExternalStorage: Store data

[Backend Service] - -> Service: Monitor
[Backend Service] - -> [Web Interface]: Information

[Backend Service] - -> GitRepository: Get plugin definitions
[Backend Service] - -> Service: Deploy services

@enduml

PlantUML version 1.2022.7(Mon Aug 22 19:01:30 CEST 2022)
(GPL source distribution)
Java Runtime: OpenJDK Runtime Environment
JVM: OpenJDK 64-Bit Server VM
Default Encoding: UTF-8
Language: en
Country: US
--></g></svg>